<?xml version="1.0" encoding="UTF-8" standalone="no"?>
<!-- Created with Inkscape (http://www.inkscape.org/) -->

<svg
   version="1.1"
   id="svg83"
   width="400"
   height="400"
   viewBox="0 0 400 400"
   sodipodi:docname="2706_1-400x400.png.svg"
   inkscape:version="1.1.2 (0a00cf5339, 2022-02-04)"
   xmlns:inkscape="http://www.inkscape.org/namespaces/inkscape"
   xmlns:sodipodi="http://sodipodi.sourceforge.net/DTD/sodipodi-0.dtd"
   xmlns="http://www.w3.org/2000/svg"
   xmlns:svg="http://www.w3.org/2000/svg">
  <defs
     id="defs87" />
  <sodipodi:namedview
     id="namedview85"
     pagecolor="#ffffff"
     bordercolor="#666666"
     borderopacity="1.0"
     inkscape:pageshadow="2"
     inkscape:pageopacity="0.0"
     inkscape:pagecheckerboard="0"
     showgrid="false"
     inkscape:zoom="1.17"
     inkscape:cx="199.57265"
     inkscape:cy="200"
     inkscape:window-width="1024"
     inkscape:window-height="716"
     inkscape:window-x="0"
     inkscape:window-y="0"
     inkscape:window-maximized="1"
     inkscape:current-layer="g276" />
  <g
     inkscape:groupmode="layer"
     inkscape:label="Image"
     id="g89">
    <g
       id="g276"
       transform="matrix(0.92422739,0,0,0.95182281,35.710353,-0.57179062)">
      <path
         style="fill:#d0d0d0;fill-opacity:1"
         d="m 242,335.72497 c 0,-0.15126 3.4875,-3.63876 7.75,-7.75 l 7.75,-7.47497 -7.47497,7.75 C 243.08244,335.44803 242,336.45627 242,335.72497 Z m 8,-36.10253 c 0,-0.20765 0.7875,-0.99515 1.75,-1.75 1.58606,-1.24387 1.62143,-1.2085 0.37756,0.37756 C 250.82119,299.91575 250,300.44548 250,299.62244 Z M 281.40499,249.75 279.5,247.5 l 2.25,1.90499 c 2.11444,1.79022 2.70524,2.59501 1.90499,2.59501 -0.18976,0 -1.20226,-1.0125 -2.25,-2.25 z M 351.5,120 c 0.99549,-1.1 2.03498,-2 2.30998,-2 0.275,0 -0.31449,0.9 -1.30998,2 -0.99549,1.1 -2.03498,2 -2.30998,2 -0.275,0 0.31449,-0.9 1.30998,-2 z M 369,102.62244 c 0,-0.20765 0.7875,-0.99515 1.75,-1.75 1.58606,-1.243866 1.62143,-1.208496 0.37756,0.37756 C 369.82119,102.91575 369,103.44548 369,102.62244 Z"
         id="path422" />
      <path
         style="fill:#b9b9b9;fill-opacity:1"
         d="m 272.75,399.33772 c 0.6875,-0.27741 1.8125,-0.27741 2.5,0 0.6875,0.27741 0.125,0.50439 -1.25,0.50439 -1.375,0 -1.9375,-0.22698 -1.25,-0.50439 z M 257,320.62244 c 0,-0.20765 0.7875,-0.99515 1.75,-1.75 1.58606,-1.24387 1.62143,-1.2085 0.37756,0.37756 C 257.82119,320.91575 257,321.44548 257,320.62244 Z M 247.5,302 c 0.99549,-1.1 2.03498,-2 2.30998,-2 0.275,0 -0.31449,0.9 -1.30998,2 -0.99549,1.1 -2.03498,2 -2.30998,2 -0.275,0 0.31449,-0.9 1.30998,-2 z m -61.25,-89.68933 c 0.9625,-0.25152 2.5375,-0.25152 3.5,0 0.9625,0.25153 0.175,0.45733 -1.75,0.45733 -1.925,0 -2.7125,-0.2058 -1.75,-0.45733 z"
         id="path419" />
      <path
         style="fill:#a3a3a3;fill-opacity:1"
         d="m 273.8125,379.31689 c 0.72187,-0.28887 1.58438,-0.25335 1.91667,0.0789 0.33229,0.33229 -0.25834,0.56864 -1.3125,0.52522 -1.16495,-0.048 -1.4019,-0.28494 -0.60417,-0.60416 z M 260,317.62244 c 0,-0.20765 0.7875,-0.99515 1.75,-1.75 1.58606,-1.24387 1.62143,-1.2085 0.37756,0.37756 C 260.82119,317.91575 260,318.44548 260,317.62244 Z m -46.1875,-84.30555 c 0.72187,-0.28887 1.58437,-0.25335 1.91667,0.0789 0.33229,0.33229 -0.25834,0.56864 -1.3125,0.52522 -1.16495,-0.048 -1.4019,-0.28494 -0.60417,-0.60416 z m -31,-21 c 0.72187,-0.28887 1.58437,-0.25335 1.91667,0.0789 0.33229,0.33229 -0.25834,0.56864 -1.3125,0.52522 -1.16495,-0.048 -1.4019,-0.28494 -0.60417,-0.60416 z M 356,115.68709 c 0,-0.1721 1.4625,-1.6346 3.25,-3.25 l 3.25,-2.93709 -2.93709,3.25 C 356.82513,115.77946 356,116.45965 356,115.68709 Z M 364.5,107 c 0.99549,-1.1 2.03498,-2 2.30998,-2 0.275,0 -0.31449,0.9 -1.30998,2 -0.99549,1.1 -2.03498,2 -2.30998,2 -0.275,0 0.31449,-0.9 1.30998,-2 z M 339,104.72497 c 0,-0.15126 3.4875,-3.63876 7.75,-7.749998 L 354.5,89.5 347.02503,97.25 C 340.08244,104.44803 339,105.45627 339,104.72497 Z M 386.40499,12.75 384.5,10.5 l 2.25,1.904988 c 1.2375,1.047743 2.25,2.060243 2.25,2.25 0,0.800253 -0.80479,0.209457 -2.59501,-1.904988 z"
         id="path416" />
      <path
         style="fill:#8c8c8c;fill-opacity:1"
         d="m 179.8125,212.31689 c 0.72187,-0.28887 1.58437,-0.25335 1.91667,0.0789 0.33229,0.33229 -0.25834,0.56864 -1.3125,0.52522 -1.16495,-0.048 -1.4019,-0.28494 -0.60417,-0.60416 z"
         id="path413" />
      <path
         style="fill:#767676;fill-opacity:1"
         d="m 240.5,309 c 0.99549,-1.1 2.03498,-2 2.30998,-2 0.275,0 -0.31449,0.9 -1.30998,2 -0.99549,1.1 -2.03498,2 -2.30998,2 -0.275,0 0.31449,-0.9 1.30998,-2 z M 351.8125,19.316886 c 0.72187,-0.288871 1.58438,-0.253344 1.91667,0.07895 0.33229,0.332292 -0.25834,0.568641 -1.3125,0.52522 -1.16495,-0.04798 -1.4019,-0.284941 -0.60417,-0.604167 z"
         id="path410" />
      <path
         style="fill:#606060;fill-opacity:1"
         d="m 207.27236,361 c 0,-2.475 0.19502,-3.4875 0.43337,-2.25 0.23836,1.2375 0.23836,3.2625 0,4.5 -0.23835,1.2375 -0.43337,0.225 -0.43337,-2.25 z m 26.68585,-45.25 c 2.45201,-2.6125 4.58951,-4.75 4.75,-4.75 0.75088,0 -0.043,0.89783 -4.45821,5.04179 L 229.5,320.5 Z M 265,312.62244 c 0,-0.20765 0.7875,-0.99515 1.75,-1.75 1.58606,-1.24387 1.62143,-1.2085 0.37756,0.37756 C 265.82119,312.91575 265,313.44548 265,312.62244 Z m 20.07895,-57.20577 c 0.048,-1.16495 0.28494,-1.4019 0.60416,-0.60417 0.28887,0.72187 0.25335,1.58438 -0.0789,1.91667 -0.33229,0.33229 -0.56864,-0.25834 -0.52522,-1.3125 z M 295.87244,236.25 c -1.24387,-1.58606 -1.2085,-1.62143 0.37756,-0.37756 1.66575,1.30637 2.19548,2.12756 1.37244,2.12756 -0.20765,0 -0.99515,-0.7875 -1.75,-1.75 z m -98.11078,-3.95726 c 1.24391,-0.23919 3.04391,-0.23011 4,0.0202 0.95609,0.25029 -0.0617,0.446 -2.26166,0.4349 -2.2,-0.0111 -2.98225,-0.21589 -1.73834,-0.45508 z M 141.15789,189 c 0,-1.375 0.22698,-1.9375 0.50439,-1.25 0.27741,0.6875 0.27741,1.8125 0,2.5 -0.27741,0.6875 -0.50439,0.125 -0.50439,-1.25 z"
         id="path407" />
      <path
         style="fill:#494949;fill-opacity:1"
         d="m 304.25218,255.5 c 0.0111,-2.2 0.21589,-2.98225 0.45508,-1.73834 0.23919,1.24391 0.23011,3.04391 -0.0202,4 -0.25029,0.95609 -0.446,-0.0617 -0.4349,-2.26166 z M 203.8125,232.31689 c 0.72187,-0.28887 1.58437,-0.25335 1.91667,0.0789 0.33229,0.33229 -0.25834,0.56864 -1.3125,0.52522 -1.16495,-0.048 -1.4019,-0.28494 -0.60417,-0.60416 z"
         id="path404" />
      <path
         style="fill:#ff0000;fill-opacity:1;stroke:#0f0000;stroke-width:5.58468;stroke-miterlimit:4;stroke-dasharray:none;stroke-opacity:1"
         d="m 222.7548,410.90251 c -26.94978,-4.20958 -39.80554,-16.31781 -39.80554,-37.49095 0,-7.01581 0.42865,-8.98154 3.32307,-15.23927 4.78295,-10.3407 9.80786,-16.1614 38.57533,-44.68446 25.66485,-25.44679 32.82298,-34.0003 35.25959,-42.13299 1.04367,-3.48345 0.94788,-4.25082 -0.83041,-6.65234 -5.51101,-7.44248 -18.60791,-12.4265 -42.82758,-16.29801 -5.99675,-0.95858 -37.68645,-3.85652 -42.60198,-3.89585 -1.70493,-0.0136 -10.15143,5.00757 -24.5,14.56453 -41.5692,27.68749 -51.5194,33.79883 -142.89802,87.76699 -20.009853,11.81781 -23.418564,12.82001 -28.004787,8.23379 -5.589438,-5.58944 -3.755965,-11.49326 5.237639,-16.8653 3.171931,-1.89466 13.642148,-8.0684 23.267148,-13.71943 57.809992,-33.94142 86.256,-51.26695 113.88316,-69.36251 14.50801,-9.50262 17.9862,-12.19185 16.5,-12.75729 -1.03574,-0.39405 -4.35816,-1.44523 -7.38316,-2.33594 -23.11051,-6.80489 -35.83003,-24.69869 -32.14817,-45.22599 4.42772,-24.68569 19.80359,-49.12571 50.44741,-80.18639 48.404,-49.06245 114.24002,-90.300965 158.20076,-99.094149 3.3,-0.660078 7.88677,-1.613912 10.19282,-2.119631 9.4912,-2.081431 25.56181,0.116405 34.68003,4.742885 11.75875,5.966257 19.39551,17.430103 22.65343,34.006002 1.2592,6.406674 0.70199,10.887294 -2.6236,21.096931 -4.56043,14.0006 -15.7264,29.544932 -35.40268,49.284692 -26.64001,26.72595 -57.93763,51.17006 -112.14833,87.59028 -12.84342,8.62855 -23.48981,16.02877 -23.65865,16.44493 -0.16883,0.41615 2.30617,1.0431 5.5,1.39322 33.23276,3.64312 53.47431,9.98565 64.35802,20.16608 7.11252,6.65293 9.2183,11.87233 8.79374,21.79623 -0.64749,15.13515 -6.76305,23.68409 -41.17548,57.55926 -25.39894,25.0024 -32.56424,33.40054 -35.26828,41.33646 -3.07319,9.01934 1.97221,17.41099 12.71231,21.14346 6.83835,2.3765 31.35472,3.24264 44.38667,1.56813 9.6842,-1.24434 11.1913,-1.51228 34.14552,-6.07045 15.85548,-3.14853 18.24249,-3.07539 21.46345,0.65764 2.43557,2.82276 2.93632,6.32061 1.42327,9.94183 -1.62476,3.88861 -3.27129,4.87742 -10.53714,6.32803 -3.0223,0.60339 -7.7451,1.57031 -10.4951,2.1487 -17.49811,3.68028 -51.18405,8.07663 -60,7.8306 -2.2,-0.0614 -7.91251,-0.72277 -12.69446,-1.46972 z M 186.25,212.31067 c 96.73635,-63.10682 149.04336,-107.36963 164.86734,-139.512687 7.88591,-16.018561 3.12636,-32.914358 -10.95531,-38.889946 -4.55014,-1.930864 -19.12794,-2.184519 -27.71277,-0.482204 -42.27441,8.382737 -104.5948,47.724835 -151.55784,95.676607 -38.93029,39.7499 -53.57717,72.26567 -38.77709,86.08432 6.22641,5.81352 20.77632,9.79081 37.13567,10.15124 l 6.80075,0.14983 z"
         id="path575" />
    </g>
  </g>
</svg>
